<mxfile host="app.diagrams.net" modified="2023-11-11T13:43:33.540Z" agent="Mozilla/5.0 (X11; Linux x86_64; rv:109.0) Gecko/20100101 Firefox/119.0" etag="dGcG4NlT5xh2qSkjxmHK" version="22.1.0" type="device">
  <diagram id="C5RBs43oDa-KdzZeNtuy" name="Page-1">
    <mxGraphModel dx="2213" dy="868" grid="1" gridSize="10" guides="1" tooltips="1" connect="1" arrows="1" fold="1" page="1" pageScale="1" pageWidth="827" pageHeight="1169" math="0" shadow="0">
      <root>
        <mxCell id="WIyWlLk6GJQsqaUBKTNV-0" />
        <mxCell id="WIyWlLk6GJQsqaUBKTNV-1" parent="WIyWlLk6GJQsqaUBKTNV-0" />
        <mxCell id="zkfFHV4jXpPFQw0GAbJ--0" value="User" style="swimlane;fontStyle=2;align=center;verticalAlign=top;childLayout=stackLayout;horizontal=1;startSize=26;horizontalStack=0;resizeParent=1;resizeLast=0;collapsible=1;marginBottom=0;rounded=0;shadow=0;strokeWidth=1;" parent="WIyWlLk6GJQsqaUBKTNV-1" vertex="1">
          <mxGeometry x="135" y="20" width="210" height="170" as="geometry">
            <mxRectangle x="230" y="140" width="160" height="26" as="alternateBounds" />
          </mxGeometry>
        </mxCell>
        <mxCell id="zkfFHV4jXpPFQw0GAbJ--1" value="- User ID : string&#xa;- Name : string&#xa;- Email : string&#xa;- Password : string&#xa;- Preferences: hash&lt;string, boolean&gt;&#xa;" style="text;align=left;verticalAlign=top;spacingLeft=4;spacingRight=4;overflow=hidden;rotatable=0;points=[[0,0.5],[1,0.5]];portConstraint=eastwest;" parent="zkfFHV4jXpPFQw0GAbJ--0" vertex="1">
          <mxGeometry y="26" width="210" height="84" as="geometry" />
        </mxCell>
        <mxCell id="zkfFHV4jXpPFQw0GAbJ--4" value="" style="line;html=1;strokeWidth=1;align=left;verticalAlign=middle;spacingTop=-1;spacingLeft=3;spacingRight=3;rotatable=0;labelPosition=right;points=[];portConstraint=eastwest;" parent="zkfFHV4jXpPFQw0GAbJ--0" vertex="1">
          <mxGeometry y="110" width="210" height="10" as="geometry" />
        </mxCell>
        <mxCell id="Up0UOVSfrlF-3dwetovo-42" value="+ ManipulateData()&#xa;+ AddNewDevices()&#xa;" style="text;align=left;verticalAlign=top;spacingLeft=4;spacingRight=4;overflow=hidden;rotatable=0;points=[[0,0.5],[1,0.5]];portConstraint=eastwest;" vertex="1" parent="zkfFHV4jXpPFQw0GAbJ--0">
          <mxGeometry y="120" width="210" height="40" as="geometry" />
        </mxCell>
        <mxCell id="6uP3axPqb9cFuWuoOM2R-4" value="Actions" style="swimlane;fontStyle=2;align=center;verticalAlign=top;childLayout=stackLayout;horizontal=1;startSize=26;horizontalStack=0;resizeParent=1;resizeLast=0;collapsible=1;marginBottom=0;rounded=0;shadow=0;strokeWidth=1;" parent="WIyWlLk6GJQsqaUBKTNV-1" vertex="1">
          <mxGeometry x="-180" y="200" width="230" height="110" as="geometry">
            <mxRectangle x="230" y="140" width="160" height="26" as="alternateBounds" />
          </mxGeometry>
        </mxCell>
        <mxCell id="6uP3axPqb9cFuWuoOM2R-5" value="- Action ID : int&#xa;- Action category : int&#xa;- Action description : string&#xa;- Input data ranges: hash &lt;string, string&gt;&#xa;- Output actions: hash &lt;string, int&gt;" style="text;align=left;verticalAlign=top;spacingLeft=4;spacingRight=4;overflow=hidden;rotatable=0;points=[[0,0.5],[1,0.5]];portConstraint=eastwest;" parent="6uP3axPqb9cFuWuoOM2R-4" vertex="1">
          <mxGeometry y="26" width="230" height="84" as="geometry" />
        </mxCell>
        <mxCell id="6uP3axPqb9cFuWuoOM2R-12" value="Sensor data" style="swimlane;fontStyle=2;align=center;verticalAlign=top;childLayout=stackLayout;horizontal=1;startSize=26;horizontalStack=0;resizeParent=1;resizeLast=0;collapsible=1;marginBottom=0;rounded=0;shadow=0;strokeWidth=1;" parent="WIyWlLk6GJQsqaUBKTNV-1" vertex="1">
          <mxGeometry x="140" y="610" width="160" height="70" as="geometry">
            <mxRectangle x="230" y="140" width="160" height="26" as="alternateBounds" />
          </mxGeometry>
        </mxCell>
        <mxCell id="6uP3axPqb9cFuWuoOM2R-13" value="- Timestamp : int&#xa;- Sensor information : string" style="text;align=left;verticalAlign=top;spacingLeft=4;spacingRight=4;overflow=hidden;rotatable=0;points=[[0,0.5],[1,0.5]];portConstraint=eastwest;" parent="6uP3axPqb9cFuWuoOM2R-12" vertex="1">
          <mxGeometry y="26" width="160" height="34" as="geometry" />
        </mxCell>
        <mxCell id="6uP3axPqb9cFuWuoOM2R-15" value="" style="endArrow=none;html=1;rounded=0;entryX=0.317;entryY=1.044;entryDx=0;entryDy=0;entryPerimeter=0;exitX=0.002;exitY=0.648;exitDx=0;exitDy=0;exitPerimeter=0;" parent="WIyWlLk6GJQsqaUBKTNV-1" target="6uP3axPqb9cFuWuoOM2R-19" edge="1" source="Up0UOVSfrlF-3dwetovo-2">
          <mxGeometry width="50" height="50" relative="1" as="geometry">
            <mxPoint x="220" y="770" as="sourcePoint" />
            <mxPoint x="270" y="720" as="targetPoint" />
          </mxGeometry>
        </mxCell>
        <mxCell id="6uP3axPqb9cFuWuoOM2R-17" value="1" style="text;html=1;strokeColor=none;fillColor=none;align=center;verticalAlign=middle;whiteSpace=wrap;rounded=0;" parent="WIyWlLk6GJQsqaUBKTNV-1" vertex="1">
          <mxGeometry x="400" y="620" width="60" height="30" as="geometry" />
        </mxCell>
        <mxCell id="6uP3axPqb9cFuWuoOM2R-19" value="N" style="text;html=1;strokeColor=none;fillColor=none;align=center;verticalAlign=middle;whiteSpace=wrap;rounded=0;" parent="WIyWlLk6GJQsqaUBKTNV-1" vertex="1">
          <mxGeometry x="280" y="620" width="60" height="30" as="geometry" />
        </mxCell>
        <mxCell id="6uP3axPqb9cFuWuoOM2R-24" value="Alerts" style="swimlane;fontStyle=2;align=center;verticalAlign=top;childLayout=stackLayout;horizontal=1;startSize=26;horizontalStack=0;resizeParent=1;resizeLast=0;collapsible=1;marginBottom=0;rounded=0;shadow=0;strokeWidth=1;" parent="WIyWlLk6GJQsqaUBKTNV-1" vertex="1">
          <mxGeometry x="490" y="400" width="160" height="80" as="geometry">
            <mxRectangle x="230" y="140" width="160" height="26" as="alternateBounds" />
          </mxGeometry>
        </mxCell>
        <mxCell id="6uP3axPqb9cFuWuoOM2R-25" value="- Data source ID : int&#xa;- Timestamp : int&#xa;- Alert information : string" style="text;align=left;verticalAlign=top;spacingLeft=4;spacingRight=4;overflow=hidden;rotatable=0;points=[[0,0.5],[1,0.5]];portConstraint=eastwest;" parent="6uP3axPqb9cFuWuoOM2R-24" vertex="1">
          <mxGeometry y="26" width="160" height="54" as="geometry" />
        </mxCell>
        <mxCell id="6uP3axPqb9cFuWuoOM2R-31" value="Produces" style="text;html=1;strokeColor=none;fillColor=none;align=center;verticalAlign=middle;whiteSpace=wrap;rounded=0;" parent="WIyWlLk6GJQsqaUBKTNV-1" vertex="1">
          <mxGeometry x="340" y="620" width="60" height="30" as="geometry" />
        </mxCell>
        <mxCell id="6uP3axPqb9cFuWuoOM2R-48" value="" style="endArrow=block;endFill=1;html=1;edgeStyle=orthogonalEdgeStyle;align=left;verticalAlign=top;rounded=0;entryX=0.5;entryY=0;entryDx=0;entryDy=0;exitX=1.014;exitY=0.875;exitDx=0;exitDy=0;exitPerimeter=0;" parent="WIyWlLk6GJQsqaUBKTNV-1" target="Up0UOVSfrlF-3dwetovo-24" edge="1" source="zkfFHV4jXpPFQw0GAbJ--1">
          <mxGeometry x="-1" relative="1" as="geometry">
            <mxPoint x="240" y="280" as="sourcePoint" />
            <mxPoint x="480" y="260" as="targetPoint" />
          </mxGeometry>
        </mxCell>
        <mxCell id="6uP3axPqb9cFuWuoOM2R-50" value="Has access to" style="text;html=1;strokeColor=none;fillColor=none;align=center;verticalAlign=middle;whiteSpace=wrap;rounded=0;" parent="WIyWlLk6GJQsqaUBKTNV-1" vertex="1">
          <mxGeometry x="400" y="90" width="80" height="30" as="geometry" />
        </mxCell>
        <mxCell id="6uP3axPqb9cFuWuoOM2R-52" value="" style="endArrow=block;endFill=1;html=1;edgeStyle=orthogonalEdgeStyle;align=left;verticalAlign=top;rounded=0;entryX=0.5;entryY=0;entryDx=0;entryDy=0;exitX=1;exitY=1;exitDx=0;exitDy=0;" parent="WIyWlLk6GJQsqaUBKTNV-1" target="6uP3axPqb9cFuWuoOM2R-4" edge="1" source="6uP3axPqb9cFuWuoOM2R-55">
          <mxGeometry x="-1" relative="1" as="geometry">
            <mxPoint x="370" y="120" as="sourcePoint" />
            <mxPoint x="558.0799999999999" y="119.61200000000008" as="targetPoint" />
            <Array as="points">
              <mxPoint x="-65" y="120" />
            </Array>
          </mxGeometry>
        </mxCell>
        <mxCell id="6uP3axPqb9cFuWuoOM2R-54" value="Can set" style="text;html=1;strokeColor=none;fillColor=none;align=center;verticalAlign=middle;whiteSpace=wrap;rounded=0;" parent="WIyWlLk6GJQsqaUBKTNV-1" vertex="1">
          <mxGeometry x="-20" y="100" width="60" height="30" as="geometry" />
        </mxCell>
        <mxCell id="6uP3axPqb9cFuWuoOM2R-55" value="1" style="text;html=1;strokeColor=none;fillColor=none;align=center;verticalAlign=middle;whiteSpace=wrap;rounded=0;" parent="WIyWlLk6GJQsqaUBKTNV-1" vertex="1">
          <mxGeometry x="75" y="90" width="60" height="30" as="geometry" />
        </mxCell>
        <mxCell id="6uP3axPqb9cFuWuoOM2R-56" value="N" style="text;html=1;strokeColor=none;fillColor=none;align=center;verticalAlign=middle;whiteSpace=wrap;rounded=0;" parent="WIyWlLk6GJQsqaUBKTNV-1" vertex="1">
          <mxGeometry x="-110" y="170" width="60" height="30" as="geometry" />
        </mxCell>
        <mxCell id="6uP3axPqb9cFuWuoOM2R-57" value="N" style="text;html=1;strokeColor=none;fillColor=none;align=center;verticalAlign=middle;whiteSpace=wrap;rounded=0;" parent="WIyWlLk6GJQsqaUBKTNV-1" vertex="1">
          <mxGeometry x="345" y="90" width="60" height="30" as="geometry" />
        </mxCell>
        <mxCell id="6uP3axPqb9cFuWuoOM2R-58" value="1" style="text;html=1;strokeColor=none;fillColor=none;align=center;verticalAlign=middle;whiteSpace=wrap;rounded=0;" parent="WIyWlLk6GJQsqaUBKTNV-1" vertex="1">
          <mxGeometry x="480" y="190" width="60" height="30" as="geometry" />
        </mxCell>
        <mxCell id="6uP3axPqb9cFuWuoOM2R-60" value="Output devices" style="swimlane;fontStyle=2;align=center;verticalAlign=top;childLayout=stackLayout;horizontal=1;startSize=26;horizontalStack=0;resizeParent=1;resizeLast=0;collapsible=1;marginBottom=0;rounded=0;shadow=0;strokeWidth=1;" parent="WIyWlLk6GJQsqaUBKTNV-1" vertex="1">
          <mxGeometry x="-170" y="510" width="160" height="140" as="geometry">
            <mxRectangle x="230" y="140" width="160" height="26" as="alternateBounds" />
          </mxGeometry>
        </mxCell>
        <mxCell id="6uP3axPqb9cFuWuoOM2R-61" value="- Device ID : int&#xa;- Device category : int&#xa;- Device location : string&#xa;- Current state: string&#xa;" style="text;align=left;verticalAlign=top;spacingLeft=4;spacingRight=4;overflow=hidden;rotatable=0;points=[[0,0.5],[1,0.5]];portConstraint=eastwest;" parent="6uP3axPqb9cFuWuoOM2R-60" vertex="1">
          <mxGeometry y="26" width="160" height="64" as="geometry" />
        </mxCell>
        <mxCell id="6uP3axPqb9cFuWuoOM2R-63" value="" style="line;html=1;strokeWidth=1;align=left;verticalAlign=middle;spacingTop=-1;spacingLeft=3;spacingRight=3;rotatable=0;labelPosition=right;points=[];portConstraint=eastwest;" parent="6uP3axPqb9cFuWuoOM2R-60" vertex="1">
          <mxGeometry y="90" width="160" height="10" as="geometry" />
        </mxCell>
        <mxCell id="Up0UOVSfrlF-3dwetovo-44" value="+ Action()&#xa;+ CheckState()&#xa;" style="text;align=left;verticalAlign=top;spacingLeft=4;spacingRight=4;overflow=hidden;rotatable=0;points=[[0,0.5],[1,0.5]];portConstraint=eastwest;" vertex="1" parent="6uP3axPqb9cFuWuoOM2R-60">
          <mxGeometry y="100" width="160" height="40" as="geometry" />
        </mxCell>
        <mxCell id="6uP3axPqb9cFuWuoOM2R-64" value="" style="endArrow=block;endFill=1;html=1;edgeStyle=orthogonalEdgeStyle;align=left;verticalAlign=top;rounded=0;entryX=0.5;entryY=0;entryDx=0;entryDy=0;exitX=0;exitY=0.5;exitDx=0;exitDy=0;" parent="WIyWlLk6GJQsqaUBKTNV-1" target="6uP3axPqb9cFuWuoOM2R-60" edge="1" source="Up0UOVSfrlF-3dwetovo-8">
          <mxGeometry x="-1" relative="1" as="geometry">
            <mxPoint x="-200" y="390" as="sourcePoint" />
            <mxPoint x="-40" y="390" as="targetPoint" />
            <mxPoint as="offset" />
            <Array as="points">
              <mxPoint x="110" y="430" />
              <mxPoint x="-90" y="430" />
            </Array>
          </mxGeometry>
        </mxCell>
        <mxCell id="6uP3axPqb9cFuWuoOM2R-67" value="Manage" style="text;html=1;strokeColor=none;fillColor=none;align=center;verticalAlign=middle;whiteSpace=wrap;rounded=0;" parent="WIyWlLk6GJQsqaUBKTNV-1" vertex="1">
          <mxGeometry x="-95" y="400" width="60" height="30" as="geometry" />
        </mxCell>
        <mxCell id="6uP3axPqb9cFuWuoOM2R-68" value="N" style="text;html=1;strokeColor=none;fillColor=none;align=center;verticalAlign=middle;whiteSpace=wrap;rounded=0;" parent="WIyWlLk6GJQsqaUBKTNV-1" vertex="1">
          <mxGeometry x="-140" y="310" width="60" height="30" as="geometry" />
        </mxCell>
        <mxCell id="6uP3axPqb9cFuWuoOM2R-69" value="N" style="text;html=1;strokeColor=none;fillColor=none;align=center;verticalAlign=middle;whiteSpace=wrap;rounded=0;" parent="WIyWlLk6GJQsqaUBKTNV-1" vertex="1">
          <mxGeometry x="-100" y="480" width="60" height="30" as="geometry" />
        </mxCell>
        <mxCell id="Up0UOVSfrlF-3dwetovo-1" value="Data Sources" style="swimlane;fontStyle=2;align=center;verticalAlign=top;childLayout=stackLayout;horizontal=1;startSize=26;horizontalStack=0;resizeParent=1;resizeLast=0;collapsible=1;marginBottom=0;rounded=0;shadow=0;strokeWidth=1;" vertex="1" parent="WIyWlLk6GJQsqaUBKTNV-1">
          <mxGeometry x="440" y="590" width="160" height="120" as="geometry">
            <mxRectangle x="230" y="140" width="160" height="26" as="alternateBounds" />
          </mxGeometry>
        </mxCell>
        <mxCell id="Up0UOVSfrlF-3dwetovo-2" value="- Device ID : int&#xa;- Device category : int&#xa;- Device location : string" style="text;align=left;verticalAlign=top;spacingLeft=4;spacingRight=4;overflow=hidden;rotatable=0;points=[[0,0.5],[1,0.5]];portConstraint=eastwest;" vertex="1" parent="Up0UOVSfrlF-3dwetovo-1">
          <mxGeometry y="26" width="160" height="54" as="geometry" />
        </mxCell>
        <mxCell id="Up0UOVSfrlF-3dwetovo-3" value="" style="line;html=1;strokeWidth=1;align=left;verticalAlign=middle;spacingTop=-1;spacingLeft=3;spacingRight=3;rotatable=0;labelPosition=right;points=[];portConstraint=eastwest;" vertex="1" parent="Up0UOVSfrlF-3dwetovo-1">
          <mxGeometry y="80" width="160" height="10" as="geometry" />
        </mxCell>
        <mxCell id="Up0UOVSfrlF-3dwetovo-6" value="+ProduceData()" style="text;align=left;verticalAlign=top;spacingLeft=4;spacingRight=4;overflow=hidden;rotatable=0;points=[[0,0.5],[1,0.5]];portConstraint=eastwest;" vertex="1" parent="Up0UOVSfrlF-3dwetovo-1">
          <mxGeometry y="90" width="160" height="30" as="geometry" />
        </mxCell>
        <mxCell id="Up0UOVSfrlF-3dwetovo-7" value="Back-End Processing Logic" style="swimlane;fontStyle=2;align=center;verticalAlign=top;childLayout=stackLayout;horizontal=1;startSize=26;horizontalStack=0;resizeParent=1;resizeLast=0;collapsible=1;marginBottom=0;rounded=0;shadow=0;strokeWidth=1;" vertex="1" parent="WIyWlLk6GJQsqaUBKTNV-1">
          <mxGeometry x="110" y="380" width="220" height="140" as="geometry">
            <mxRectangle x="230" y="140" width="160" height="26" as="alternateBounds" />
          </mxGeometry>
        </mxCell>
        <mxCell id="Up0UOVSfrlF-3dwetovo-8" value="- Current Data: hash&lt;string, string&gt;&#xa;- Clock Time: int" style="text;align=left;verticalAlign=top;spacingLeft=4;spacingRight=4;overflow=hidden;rotatable=0;points=[[0,0.5],[1,0.5]];portConstraint=eastwest;" vertex="1" parent="Up0UOVSfrlF-3dwetovo-7">
          <mxGeometry y="26" width="220" height="44" as="geometry" />
        </mxCell>
        <mxCell id="Up0UOVSfrlF-3dwetovo-9" value="" style="line;html=1;strokeWidth=1;align=left;verticalAlign=middle;spacingTop=-1;spacingLeft=3;spacingRight=3;rotatable=0;labelPosition=right;points=[];portConstraint=eastwest;" vertex="1" parent="Up0UOVSfrlF-3dwetovo-7">
          <mxGeometry y="70" width="220" height="10" as="geometry" />
        </mxCell>
        <mxCell id="Up0UOVSfrlF-3dwetovo-10" value="+ ProcessNewData()&#xa;+ CheckActions()&#xa;+ OutputReactions()&#xa;" style="text;align=left;verticalAlign=top;spacingLeft=4;spacingRight=4;overflow=hidden;rotatable=0;points=[[0,0.5],[1,0.5]];portConstraint=eastwest;" vertex="1" parent="Up0UOVSfrlF-3dwetovo-7">
          <mxGeometry y="80" width="220" height="50" as="geometry" />
        </mxCell>
        <mxCell id="Up0UOVSfrlF-3dwetovo-11" value="" style="endArrow=block;endFill=1;html=1;edgeStyle=orthogonalEdgeStyle;align=left;verticalAlign=top;rounded=0;entryX=0.812;entryY=1;entryDx=0;entryDy=0;exitX=0.336;exitY=1.038;exitDx=0;exitDy=0;exitPerimeter=0;entryPerimeter=0;" edge="1" parent="WIyWlLk6GJQsqaUBKTNV-1" source="Up0UOVSfrlF-3dwetovo-13" target="Up0UOVSfrlF-3dwetovo-14">
          <mxGeometry x="-1" relative="1" as="geometry">
            <mxPoint x="355" y="440" as="sourcePoint" />
            <mxPoint x="543.0799999999999" y="439.6120000000001" as="targetPoint" />
            <Array as="points">
              <mxPoint x="330" y="440" />
            </Array>
          </mxGeometry>
        </mxCell>
        <mxCell id="Up0UOVSfrlF-3dwetovo-12" value="Interacts with" style="text;html=1;strokeColor=none;fillColor=none;align=center;verticalAlign=middle;whiteSpace=wrap;rounded=0;" vertex="1" parent="WIyWlLk6GJQsqaUBKTNV-1">
          <mxGeometry x="170" y="250" width="90" height="30" as="geometry" />
        </mxCell>
        <mxCell id="Up0UOVSfrlF-3dwetovo-13" value="1" style="text;html=1;strokeColor=none;fillColor=none;align=center;verticalAlign=middle;whiteSpace=wrap;rounded=0;" vertex="1" parent="WIyWlLk6GJQsqaUBKTNV-1">
          <mxGeometry x="310" y="410" width="60" height="30" as="geometry" />
        </mxCell>
        <mxCell id="Up0UOVSfrlF-3dwetovo-14" value="N" style="text;html=1;strokeColor=none;fillColor=none;align=center;verticalAlign=middle;whiteSpace=wrap;rounded=0;" vertex="1" parent="WIyWlLk6GJQsqaUBKTNV-1">
          <mxGeometry x="440" y="410" width="60" height="30" as="geometry" />
        </mxCell>
        <mxCell id="Up0UOVSfrlF-3dwetovo-20" value="" style="endArrow=none;html=1;rounded=0;entryX=0.5;entryY=1;entryDx=0;entryDy=0;" edge="1" parent="WIyWlLk6GJQsqaUBKTNV-1">
          <mxGeometry width="50" height="50" relative="1" as="geometry">
            <mxPoint x="220" y="610" as="sourcePoint" />
            <mxPoint x="220" y="520" as="targetPoint" />
          </mxGeometry>
        </mxCell>
        <mxCell id="Up0UOVSfrlF-3dwetovo-21" value="1" style="text;html=1;strokeColor=none;fillColor=none;align=center;verticalAlign=middle;whiteSpace=wrap;rounded=0;" vertex="1" parent="WIyWlLk6GJQsqaUBKTNV-1">
          <mxGeometry x="200" y="580" width="60" height="30" as="geometry" />
        </mxCell>
        <mxCell id="Up0UOVSfrlF-3dwetovo-22" value="N" style="text;html=1;strokeColor=none;fillColor=none;align=center;verticalAlign=middle;whiteSpace=wrap;rounded=0;" vertex="1" parent="WIyWlLk6GJQsqaUBKTNV-1">
          <mxGeometry x="200" y="520" width="60" height="30" as="geometry" />
        </mxCell>
        <mxCell id="Up0UOVSfrlF-3dwetovo-23" value="Fetches" style="text;html=1;strokeColor=none;fillColor=none;align=center;verticalAlign=middle;whiteSpace=wrap;rounded=0;" vertex="1" parent="WIyWlLk6GJQsqaUBKTNV-1">
          <mxGeometry x="220" y="550" width="60" height="30" as="geometry" />
        </mxCell>
        <mxCell id="Up0UOVSfrlF-3dwetovo-24" value="Back-End REST API" style="swimlane;fontStyle=2;align=center;verticalAlign=top;childLayout=stackLayout;horizontal=1;startSize=26;horizontalStack=0;resizeParent=1;resizeLast=0;collapsible=1;marginBottom=0;rounded=0;shadow=0;strokeWidth=1;" vertex="1" parent="WIyWlLk6GJQsqaUBKTNV-1">
          <mxGeometry x="360" y="220" width="240" height="140" as="geometry">
            <mxRectangle x="230" y="140" width="160" height="26" as="alternateBounds" />
          </mxGeometry>
        </mxCell>
        <mxCell id="Up0UOVSfrlF-3dwetovo-25" value="- Current sensor data: hash&lt;string, string&gt;&#xa;- Active user/session data: list" style="text;align=left;verticalAlign=top;spacingLeft=4;spacingRight=4;overflow=hidden;rotatable=0;points=[[0,0.5],[1,0.5]];portConstraint=eastwest;" vertex="1" parent="Up0UOVSfrlF-3dwetovo-24">
          <mxGeometry y="26" width="240" height="34" as="geometry" />
        </mxCell>
        <mxCell id="Up0UOVSfrlF-3dwetovo-26" value="" style="line;html=1;strokeWidth=1;align=left;verticalAlign=middle;spacingTop=-1;spacingLeft=3;spacingRight=3;rotatable=0;labelPosition=right;points=[];portConstraint=eastwest;" vertex="1" parent="Up0UOVSfrlF-3dwetovo-24">
          <mxGeometry y="60" width="240" height="10" as="geometry" />
        </mxCell>
        <mxCell id="Up0UOVSfrlF-3dwetovo-27" value="+ AcceptNewData()&#xa;+ DisplayCurrentData()&#xa;+ ManageLogins()&#xa;+ DisplayAlert()&#xa;" style="text;align=left;verticalAlign=top;spacingLeft=4;spacingRight=4;overflow=hidden;rotatable=0;points=[[0,0.5],[1,0.5]];portConstraint=eastwest;" vertex="1" parent="Up0UOVSfrlF-3dwetovo-24">
          <mxGeometry y="70" width="240" height="70" as="geometry" />
        </mxCell>
        <mxCell id="Up0UOVSfrlF-3dwetovo-30" value="" style="endArrow=block;endFill=1;html=1;edgeStyle=orthogonalEdgeStyle;align=left;verticalAlign=top;rounded=0;entryX=-0.015;entryY=0.912;entryDx=0;entryDy=0;exitX=0.83;exitY=0.985;exitDx=0;exitDy=0;entryPerimeter=0;exitPerimeter=0;" edge="1" parent="Up0UOVSfrlF-3dwetovo-24" source="Up0UOVSfrlF-3dwetovo-31">
          <mxGeometry x="-1" relative="1" as="geometry">
            <mxPoint x="-100" y="60" as="sourcePoint" />
            <mxPoint x="-310" y="60" as="targetPoint" />
            <Array as="points">
              <mxPoint x="-4" y="60" />
            </Array>
          </mxGeometry>
        </mxCell>
        <mxCell id="Up0UOVSfrlF-3dwetovo-31" value="1" style="text;html=1;strokeColor=none;fillColor=none;align=center;verticalAlign=middle;whiteSpace=wrap;rounded=0;" vertex="1" parent="WIyWlLk6GJQsqaUBKTNV-1">
          <mxGeometry x="310" y="250" width="60" height="30" as="geometry" />
        </mxCell>
        <mxCell id="Up0UOVSfrlF-3dwetovo-32" value="N" style="text;html=1;strokeColor=none;fillColor=none;align=center;verticalAlign=middle;whiteSpace=wrap;rounded=0;" vertex="1" parent="WIyWlLk6GJQsqaUBKTNV-1">
          <mxGeometry x="50" y="250" width="60" height="30" as="geometry" />
        </mxCell>
        <mxCell id="Up0UOVSfrlF-3dwetovo-33" value="" style="endArrow=none;endFill=0;html=1;edgeStyle=orthogonalEdgeStyle;align=left;verticalAlign=top;rounded=0;entryX=0.5;entryY=0;entryDx=0;entryDy=0;exitX=0.389;exitY=0.997;exitDx=0;exitDy=0;exitPerimeter=0;" edge="1" parent="WIyWlLk6GJQsqaUBKTNV-1" source="6uP3axPqb9cFuWuoOM2R-5">
          <mxGeometry x="-1" relative="1" as="geometry">
            <mxPoint x="-90" y="360" as="sourcePoint" />
            <mxPoint x="-90" y="510" as="targetPoint" />
            <mxPoint as="offset" />
            <Array as="points" />
          </mxGeometry>
        </mxCell>
        <mxCell id="Up0UOVSfrlF-3dwetovo-34" value="1" style="text;html=1;strokeColor=none;fillColor=none;align=center;verticalAlign=middle;whiteSpace=wrap;rounded=0;" vertex="1" parent="WIyWlLk6GJQsqaUBKTNV-1">
          <mxGeometry x="60" y="400" width="60" height="30" as="geometry" />
        </mxCell>
        <mxCell id="Up0UOVSfrlF-3dwetovo-35" value="Generates" style="text;html=1;strokeColor=none;fillColor=none;align=center;verticalAlign=middle;whiteSpace=wrap;rounded=0;" vertex="1" parent="WIyWlLk6GJQsqaUBKTNV-1">
          <mxGeometry x="380" y="410" width="60" height="30" as="geometry" />
        </mxCell>
        <mxCell id="Up0UOVSfrlF-3dwetovo-36" value="" style="endArrow=block;endFill=1;html=1;edgeStyle=orthogonalEdgeStyle;align=left;verticalAlign=top;rounded=0;entryX=0.222;entryY=0.973;entryDx=0;entryDy=0;exitX=0.222;exitY=0.973;exitDx=0;exitDy=0;exitPerimeter=0;entryPerimeter=0;" edge="1" parent="WIyWlLk6GJQsqaUBKTNV-1" source="Up0UOVSfrlF-3dwetovo-38">
          <mxGeometry x="-1" relative="1" as="geometry">
            <mxPoint x="732" y="380" as="sourcePoint" />
            <mxPoint x="600" y="280" as="targetPoint" />
            <Array as="points">
              <mxPoint x="623" y="280" />
            </Array>
          </mxGeometry>
        </mxCell>
        <mxCell id="Up0UOVSfrlF-3dwetovo-37" value="1" style="text;html=1;strokeColor=none;fillColor=none;align=center;verticalAlign=middle;whiteSpace=wrap;rounded=0;" vertex="1" parent="WIyWlLk6GJQsqaUBKTNV-1">
          <mxGeometry x="580" y="250" width="60" height="30" as="geometry" />
        </mxCell>
        <mxCell id="Up0UOVSfrlF-3dwetovo-38" value="N" style="text;html=1;strokeColor=none;fillColor=none;align=center;verticalAlign=middle;whiteSpace=wrap;rounded=0;" vertex="1" parent="WIyWlLk6GJQsqaUBKTNV-1">
          <mxGeometry x="610" y="370" width="60" height="30" as="geometry" />
        </mxCell>
        <mxCell id="Up0UOVSfrlF-3dwetovo-40" value="Sent to" style="text;html=1;strokeColor=none;fillColor=none;align=center;verticalAlign=middle;whiteSpace=wrap;rounded=0;" vertex="1" parent="WIyWlLk6GJQsqaUBKTNV-1">
          <mxGeometry x="620" y="310" width="90" height="30" as="geometry" />
        </mxCell>
      </root>
    </mxGraphModel>
  </diagram>
</mxfile>
